<svg width="45" height="48" viewBox="0 0 45 48" fill="none" xmlns="http://www.w3.org/2000/svg">
<path d="M2.5 33.5717V33.3732V13.9982C2.5 13.2261 2.91648 12.5139 3.58948 12.1354L3.62828 12.1136L21.5455 2.03509L21.6817 1.95849C22.1897 1.67269 22.8103 1.67269 23.3183 1.95849L41.5263 12.2005C42.1278 12.5388 42.5 13.1753 42.5 13.8654V13.9982V33.3732V33.5717C42.5 34.278 42.1265 34.9315 41.5182 35.29L23.4475 45.9397C22.8627 46.2842 22.1373 46.2842 21.5525 45.9397L3.48168 35.29C2.87338 34.9315 2.5 34.278 2.5 33.5717Z" stroke="#282828" stroke-width="3.18"/>
<path d="M22.5 46.5V24" stroke="#282828" stroke-width="3.18"/>
<path d="M22.5 24L2.5 12.75" stroke="#282828" stroke-width="3.18"/>
<path d="M42.5 12.75L22.5 24" stroke="#282828" stroke-width="3.18"/>
</svg>
