<svg width="38" height="41" viewBox="0 0 38 41" fill="none" xmlns="http://www.w3.org/2000/svg">
<path d="M18.8129 31.7541C18.5654 31.2103 18.0529 30.8136 17.4326 30.7431C16.9074 30.6831 16.3931 30.5706 15.9041 30.4083C15.6849 30.3346 15.4791 30.2541 15.2886 30.1678L15.6051 29.3051C15.8286 29.4048 16.0589 29.4961 16.2946 29.5786L16.3044 29.5821L16.3144 29.5853C17.0709 29.8353 17.8154 29.9621 18.5266 29.9621C19.2409 29.9621 19.7586 29.8663 20.1564 29.6611L20.1801 29.6488L20.2034 29.6353C20.8059 29.2896 21.1516 28.6953 21.1516 28.0046C21.1516 27.2381 20.7381 26.6018 20.0169 26.2581C19.6541 26.0816 19.1389 25.9131 18.3966 25.7286C17.6354 25.5361 16.9959 25.3318 16.4999 25.1226C16.1374 24.9586 15.8229 24.6968 15.5394 24.3226C15.2954 23.9886 15.1719 23.4863 15.1719 22.8291C15.1719 22.0361 15.3951 21.3816 15.8546 20.8281C16.2636 20.3431 16.8444 20.0136 17.6239 19.8288C18.2021 19.6918 18.6531 19.2791 18.8559 18.7461C19.0851 19.2863 19.5729 19.6881 20.1799 19.7848C20.6869 19.8656 21.1524 19.9943 21.5709 20.1686L21.2796 21.0141C20.4894 20.6968 19.7116 20.5366 18.9594 20.5366C16.4611 20.5366 16.3346 22.2601 16.3346 22.6056C16.3346 23.3546 16.7391 23.9826 17.4444 24.3288L17.4641 24.3386L17.4841 24.3476C17.8404 24.5066 18.3459 24.6598 19.0754 24.8298C19.8296 25.0003 20.4586 25.1956 20.9529 25.4121L20.9631 25.4166L20.9734 25.4208C21.3404 25.5736 21.6551 25.8286 21.9356 26.2006L21.9401 26.2063L21.9446 26.2123C22.1899 26.5293 22.3144 27.0196 22.3144 27.6696C22.3144 28.4198 22.0971 29.0548 21.6501 29.6111C21.2624 30.0936 20.7211 30.4276 19.9949 30.6321C19.4341 30.7901 18.9991 31.2188 18.8129 31.7541Z" fill="#282828"/>
<path d="M19.446 34H18.2423C17.973 34 17.7548 33.7762 17.7548 33.5V32.4963C17.7548 32.2323 17.5545 32.0153 17.2985 31.986C16.689 31.9168 16.0995 31.7875 15.5298 31.5985C14.9763 31.412 14.4967 31.191 14.0912 30.9347C13.9048 30.817 13.837 30.578 13.9141 30.368L14.7398 28.1165C14.851 27.8135 15.2098 27.6975 15.486 27.8543C15.859 28.0655 16.26 28.2463 16.6885 28.3962C17.3273 28.6073 17.9403 28.7128 18.5273 28.7128C19.032 28.7128 19.3928 28.657 19.609 28.5452C19.8253 28.421 19.9335 28.241 19.9335 28.0053C19.9335 27.7323 19.7893 27.5275 19.5008 27.391C19.2228 27.2545 18.759 27.1055 18.1103 26.9443C17.2758 26.7332 16.5805 26.5098 16.0243 26.274C15.468 26.0258 14.9838 25.6285 14.5718 25.0825C14.1597 24.524 13.9537 23.773 13.9537 22.8298C13.9537 21.7375 14.2782 20.8005 14.927 20.0185C15.512 19.325 16.3195 18.856 17.35 18.6117C17.582 18.5567 17.7548 18.3502 17.7548 18.1062V17C17.7548 16.7237 17.973 16.5 18.2423 16.5H19.446C19.7153 16.5 19.9335 16.7237 19.9335 17V18.043C19.9335 18.2985 20.1215 18.5113 20.3675 18.5505C21.2703 18.6942 22.0635 18.9665 22.747 19.3673C22.941 19.481 23.018 19.723 22.9435 19.939L22.1708 22.1813C22.0685 22.4785 21.7273 22.6043 21.4528 22.4623C20.5823 22.0123 19.7515 21.7872 18.96 21.7872C18.0225 21.7872 17.5538 22.0603 17.5538 22.6063C17.5538 22.867 17.693 23.0655 17.971 23.2022C18.2493 23.3262 18.7075 23.4627 19.3463 23.6117C20.1703 23.798 20.8658 24.015 21.4323 24.2632C21.9988 24.499 22.488 24.89 22.9003 25.4363C23.3225 25.9823 23.5338 26.727 23.5338 27.6702C23.5338 28.7127 23.2195 29.625 22.591 30.407C22.0438 31.0885 21.286 31.5655 20.3183 31.8382C20.0958 31.901 19.9335 32.103 19.9335 32.3395V33.5C19.9335 33.7762 19.7153 34 19.446 34Z" fill="#282828"/>
<path fill-rule="evenodd" clip-rule="evenodd" d="M13.4809 1.5H24.0352C26.7385 1.5 25.254 5.66 24.1595 8.1975L22.914 11.1075L22.7457 11.5C23.9255 11.4413 25.0922 11.7763 26.0705 12.455C29.7302 15.8895 32.7005 20.0245 34.814 24.6275C35.6375 26.3295 35.9642 28.2395 35.7547 30.1275C35.5032 34.9398 31.739 38.7745 27.0455 39H10.4706C5.77582 38.7813 2.006 34.9505 1.7492 30.1375C1.53967 28.2495 1.8664 26.3395 2.69007 24.6375C4.80605 20.03 7.78039 15.8913 11.4456 12.455C12.424 11.7763 13.5905 11.4413 14.7702 11.5L14.5752 11.0475L13.3566 8.1975C12.267 5.66 10.7752 1.5 13.4809 1.5Z" stroke="#282828" stroke-width="2.52" stroke-linecap="round" stroke-linejoin="round"/>
<path d="M22.7498 13.3753C23.7853 13.3753 24.6248 12.5359 24.6248 11.5003C24.6248 10.4648 23.7853 9.62535 22.7498 9.62535V13.3753ZM14.7743 9.62535C13.7388 9.62535 12.8993 10.4648 12.8993 11.5003C12.8993 12.5359 13.7388 13.3753 14.7743 13.3753V9.62535ZM29.448 10.6251C30.3453 10.1082 30.6538 8.96172 30.1368 8.06442C29.6198 7.16712 28.4735 6.85875 27.5763 7.37565L29.448 10.6251ZM22.918 11.1079L23.2798 12.9476L23.2853 12.9465L22.918 11.1079ZM14.5793 11.0478L14.9675 9.21337L14.9505 9.20992L14.5793 11.0478ZM9.91901 7.35927C9.01266 6.8584 7.87188 7.18707 7.37101 8.0934C6.87011 8.99975 7.19878 10.1405 8.10513 10.6414L9.91901 7.35927ZM22.7498 9.62535H14.7743V13.3753H22.7498V9.62535ZM27.5763 7.37565C26.0088 8.27855 24.3123 8.91742 22.5508 9.26915L23.2853 12.9465C25.4485 12.5145 27.5293 11.7304 29.448 10.6251L27.5763 7.37565ZM22.5563 9.26807C20.0478 9.76137 17.4693 9.74272 14.9675 9.21337L14.1912 12.8822C17.187 13.5161 20.2755 13.5384 23.2798 12.9476L22.5563 9.26807ZM14.9505 9.20992C13.1937 8.85525 11.4976 8.23172 9.91901 7.35927L8.10513 10.6414C10.0172 11.6981 12.0745 12.4549 14.2082 12.8858L14.9505 9.20992Z" fill="#282828"/>
</svg>
