<svg width="28" height="28" viewBox="0 0 28 28" fill="none" xmlns="http://www.w3.org/2000/svg">
    <path
        d="M2.89844 25.3648V5.37711C2.89844 4.76637 3.11608 4.24373 3.55137 3.80918C3.98666 3.37463 4.5093 3.15699 5.1193 3.15625H22.8862C23.4969 3.15625 24.0199 3.37389 24.4552 3.80918C24.8905 4.24447 25.1078 4.76711 25.107 5.37711V18.7023C25.107 19.313 24.8898 19.836 24.4552 20.2713C24.0207 20.7066 23.4976 20.9239 22.8862 20.9231H7.34016L2.89844 25.3648ZM9.56101 13.1501C9.87564 13.1501 10.1395 13.0435 10.3528 12.8303C10.566 12.6171 10.6722 12.3536 10.6714 12.0397C10.6707 11.7258 10.5641 11.4623 10.3516 11.2491C10.1392 11.0359 9.87564 10.9293 9.56101 10.9293C9.24639 10.9293 8.98285 11.0359 8.77039 11.2491C8.55793 11.4623 8.45133 11.7258 8.45059 12.0397C8.44984 12.3536 8.55645 12.6175 8.77039 12.8314C8.98433 13.0454 9.24787 13.1516 9.56101 13.1501ZM14.0027 13.1501C14.3174 13.1501 14.5813 13.0435 14.7945 12.8303C15.0077 12.6171 15.1139 12.3536 15.1132 12.0397C15.1124 11.7258 15.0058 11.4623 14.7934 11.2491C14.5809 11.0359 14.3174 10.9293 14.0027 10.9293C13.6881 10.9293 13.4246 11.0359 13.2121 11.2491C12.9996 11.4623 12.893 11.7258 12.8923 12.0397C12.8916 12.3536 12.9982 12.6175 13.2121 12.8314C13.4261 13.0454 13.6896 13.1516 14.0027 13.1501ZM18.4445 13.1501C18.7591 13.1501 19.023 13.0435 19.2362 12.8303C19.4494 12.6171 19.5556 12.3536 19.5549 12.0397C19.5541 11.7258 19.4475 11.4623 19.2351 11.2491C19.0226 11.0359 18.7591 10.9293 18.4445 10.9293C18.1298 10.9293 17.8663 11.0359 17.6538 11.2491C17.4414 11.4623 17.3348 11.7258 17.334 12.0397C17.3333 12.3536 17.4399 12.6175 17.6538 12.8314C17.8678 13.0454 18.1313 13.1516 18.4445 13.1501Z"
        fill="currentColor" />
</svg>