<svg width="27" height="28" viewBox="0 0 27 28" fill="none" xmlns="http://www.w3.org/2000/svg">
    <path
        d="M22.4174 5.37695H4.65055C3.42907 5.37695 2.44079 6.37634 2.44079 7.59781L2.42969 20.923C2.42969 22.1444 3.42907 23.1438 4.65055 23.1438H22.4174C23.6389 23.1438 24.6383 22.1444 24.6383 20.923V7.59781C24.6383 6.37634 23.6389 5.37695 22.4174 5.37695ZM21.9732 10.0963L14.1225 15.0044C13.7672 15.2265 13.3008 15.2265 12.9455 15.0044L5.09472 10.0963C4.98337 10.0338 4.88587 9.94933 4.8081 9.84805C4.73034 9.74677 4.67393 9.63076 4.6423 9.50705C4.61067 9.38334 4.60447 9.2545 4.62407 9.12832C4.64367 9.00215 4.68867 8.88126 4.75635 8.77298C4.82403 8.6647 4.91297 8.57128 5.01779 8.49836C5.12262 8.42545 5.24115 8.37457 5.36621 8.34879C5.49127 8.32302 5.62027 8.32289 5.74538 8.3484C5.87049 8.37392 5.98913 8.42456 6.09411 8.49726L13.534 13.15L20.9739 8.49726C21.0788 8.42456 21.1975 8.37392 21.3226 8.3484C21.4477 8.32289 21.5767 8.32302 21.7018 8.34879C21.8268 8.37457 21.9453 8.42545 22.0502 8.49836C22.155 8.57128 22.2439 8.6647 22.3116 8.77298C22.3793 8.88126 22.4243 9.00215 22.4439 9.12832C22.4635 9.2545 22.4573 9.38334 22.4257 9.50705C22.394 9.63076 22.3376 9.74677 22.2599 9.84805C22.1821 9.94933 22.0846 10.0338 21.9732 10.0963Z"
        fill="currentColor" />
</svg>