<svg width="21" height="21" viewBox="0 0 21 21" fill="none" xmlns="http://www.w3.org/2000/svg">
    <path
        d="M19.3907 0.00600004L19.4967 0L19.6267 0.0079999L19.7167 0.0239999L19.8397 0.059L19.9467 0.105L20.0467 0.162L20.1367 0.229L20.2187 0.304L20.2707 0.363L20.3527 0.479L20.4047 0.575C20.4514 0.675 20.4814 0.780333 20.4947 0.891L20.4997 0.997C20.4997 1.07233 20.4917 1.14567 20.4757 1.217L20.4407 1.34L13.9087 19.417C13.7849 19.6866 13.5863 19.9149 13.3365 20.075C13.0868 20.2351 12.7963 20.3201 12.4997 20.32C12.2326 20.3206 11.9699 20.2521 11.737 20.1212C11.5041 19.9903 11.3091 19.8015 11.1707 19.573L11.1057 19.446L7.75369 12.744L1.08369 9.408C0.836889 9.29513 0.62405 9.11943 0.46646 8.89849C0.30887 8.67755 0.212051 8.4191 0.185688 8.149L0.179688 8C0.179688 7.44 0.480687 6.928 1.02069 6.63L1.16069 6.56L19.1777 0.0539999L19.2837 0.0239999L19.3907 0.00600004Z"
        fill="currentColor" />
</svg>