<svg width="18" height="20" viewBox="0 0 18 20" fill="none" xmlns="http://www.w3.org/2000/svg">
<path d="M2.4987 17.5827H5.7487V12.166C5.7487 11.8591 5.8527 11.602 6.0607 11.3947C6.2687 11.1874 6.52581 11.0834 6.83203 11.0827H11.1654C11.4723 11.0827 11.7298 11.1867 11.9378 11.3947C12.1458 11.6027 12.2494 11.8598 12.2487 12.166V17.5827H15.4987V7.83268L8.9987 2.95768L2.4987 7.83268V17.5827ZM0.332031 17.5827V7.83268C0.332031 7.48963 0.408948 7.16463 0.562781 6.85768C0.716614 6.55074 0.928587 6.29796 1.1987 6.09935L7.6987 1.22435C8.07787 0.93546 8.5112 0.791016 8.9987 0.791016C9.4862 0.791016 9.91953 0.93546 10.2987 1.22435L16.7987 6.09935C17.0695 6.29796 17.2819 6.55074 17.4357 6.85768C17.5895 7.16463 17.6661 7.48963 17.6654 7.83268V17.5827C17.6654 18.1785 17.453 18.6888 17.0284 19.1134C16.6037 19.5381 16.0938 19.7501 15.4987 19.7493H11.1654C10.8584 19.7493 10.6013 19.6453 10.394 19.4373C10.1868 19.2293 10.0828 18.9722 10.082 18.666V13.2493H7.91536V18.666C7.91536 18.973 7.81136 19.2304 7.60336 19.4384C7.39536 19.6464 7.13825 19.7501 6.83203 19.7493H2.4987C1.90286 19.7493 1.39298 19.5374 0.969031 19.1134C0.545087 18.6895 0.332753 18.1792 0.332031 17.5827Z" fill="#9D9FA1"/>
</svg>
