<svg width="102" height="29" viewBox="0 0 102 29" fill="none" xmlns="http://www.w3.org/2000/svg">
<path d="M7.82691 1.61C8.90691 1.61 9.87691 1.84 10.7369 2.3C11.6169 2.74 12.3569 3.35 12.9569 4.13C13.5769 4.91 14.0469 5.79 14.3669 6.77C14.7069 7.73 14.8769 8.74 14.8769 9.8C14.8769 10.48 14.7969 11.31 14.6369 12.29C14.4969 13.27 14.2369 14.31 13.8569 15.41C13.4769 16.49 12.9469 17.55 12.2669 18.59C11.5869 19.61 10.7169 20.53 9.65691 21.35C8.61691 22.17 7.33691 22.79 5.81691 23.21C5.57691 23.27 5.34691 23.3 5.12691 23.3C4.66691 23.3 4.24691 23.18 3.86691 22.94C3.50691 22.68 3.32691 22.24 3.32691 21.62C3.32691 21.16 3.46691 20.77 3.74691 20.45C4.04691 20.13 4.43691 19.9 4.91691 19.76C5.83691 19.48 6.72691 19.02 7.58691 18.38C8.46691 17.72 9.22691 16.93 9.86691 16.01C10.5069 15.07 10.9369 14.05 11.1569 12.95L11.9669 12.98C11.7069 13.3 11.3669 13.66 10.9469 14.06C10.5469 14.46 10.0469 14.81 9.44691 15.11C8.86691 15.39 8.16691 15.53 7.34691 15.53C6.02691 15.53 4.87691 15.25 3.89691 14.69C2.93691 14.11 2.18691 13.3 1.64691 12.26C1.10691 11.2 0.836914 9.97 0.836914 8.57C0.836914 7.31 1.14691 6.15 1.76691 5.09C2.40691 4.03 3.25691 3.19 4.31691 2.57C5.37691 1.93 6.54691 1.61 7.82691 1.61ZM7.82691 4.91C7.18691 4.91 6.60691 5.08 6.08691 5.42C5.58691 5.74 5.18691 6.18 4.88691 6.74C4.58691 7.28 4.43691 7.89 4.43691 8.57C4.43691 9.31 4.57691 9.96 4.85691 10.52C5.13691 11.06 5.52691 11.48 6.02691 11.78C6.54691 12.08 7.14691 12.23 7.82691 12.23C8.46691 12.23 9.03691 12.07 9.53691 11.75C10.0569 11.43 10.4669 10.99 10.7669 10.43C11.0669 9.87 11.2169 9.25 11.2169 8.57C11.2169 7.87 11.0669 7.25 10.7669 6.71C10.4669 6.15 10.0569 5.71 9.53691 5.39C9.03691 5.07 8.46691 4.91 7.82691 4.91ZM24.8777 1.61C25.9577 1.61 26.9277 1.84 27.7877 2.3C28.6677 2.74 29.4077 3.35 30.0077 4.13C30.6277 4.91 31.0977 5.79 31.4177 6.77C31.7577 7.73 31.9277 8.74 31.9277 9.8C31.9277 10.48 31.8477 11.31 31.6877 12.29C31.5477 13.27 31.2877 14.31 30.9077 15.41C30.5277 16.49 29.9977 17.55 29.3177 18.59C28.6377 19.61 27.7677 20.53 26.7077 21.35C25.6677 22.17 24.3877 22.79 22.8677 23.21C22.6277 23.27 22.3977 23.3 22.1777 23.3C21.7177 23.3 21.2977 23.18 20.9177 22.94C20.5577 22.68 20.3777 22.24 20.3777 21.62C20.3777 21.16 20.5177 20.77 20.7977 20.45C21.0977 20.13 21.4877 19.9 21.9677 19.76C22.8877 19.48 23.7777 19.02 24.6377 18.38C25.5177 17.72 26.2777 16.93 26.9177 16.01C27.5577 15.07 27.9877 14.05 28.2077 12.95L29.0177 12.98C28.7577 13.3 28.4177 13.66 27.9977 14.06C27.5977 14.46 27.0977 14.81 26.4977 15.11C25.9177 15.39 25.2177 15.53 24.3977 15.53C23.0777 15.53 21.9277 15.25 20.9477 14.69C19.9877 14.11 19.2377 13.3 18.6977 12.26C18.1577 11.2 17.8877 9.97 17.8877 8.57C17.8877 7.31 18.1977 6.15 18.8177 5.09C19.4577 4.03 20.3077 3.19 21.3677 2.57C22.4277 1.93 23.5977 1.61 24.8777 1.61ZM24.8777 4.91C24.2377 4.91 23.6577 5.08 23.1377 5.42C22.6377 5.74 22.2377 6.18 21.9377 6.74C21.6377 7.28 21.4877 7.89 21.4877 8.57C21.4877 9.31 21.6277 9.96 21.9077 10.52C22.1877 11.06 22.5777 11.48 23.0777 11.78C23.5977 12.08 24.1977 12.23 24.8777 12.23C25.5177 12.23 26.0877 12.07 26.5877 11.75C27.1077 11.43 27.5177 10.99 27.8177 10.43C28.1177 9.87 28.2677 9.25 28.2677 8.57C28.2677 7.87 28.1177 7.25 27.8177 6.71C27.5177 6.15 27.1077 5.71 26.5877 5.39C26.0877 5.07 25.5177 4.91 24.8777 4.91ZM41.9885 23.3C40.9085 23.3 39.9285 23.08 39.0485 22.64C38.1885 22.18 37.4485 21.56 36.8285 20.78C36.2285 20 35.7585 19.12 35.4185 18.14C35.0985 17.16 34.9385 16.15 34.9385 15.11C34.9385 14.43 35.0085 13.61 35.1485 12.65C35.3085 11.69 35.5785 10.68 35.9585 9.62C36.3385 8.56 36.8685 7.53 37.5485 6.53C38.2285 5.53 39.0885 4.63 40.1285 3.83C41.1885 3.03 42.4785 2.42 43.9985 2C44.2385 1.94 44.4685 1.91 44.6885 1.91C45.1485 1.91 45.5585 2.03 45.9185 2.27C46.2985 2.51 46.4885 2.95 46.4885 3.59C46.4885 4.03 46.3385 4.42 46.0385 4.76C45.7585 5.08 45.3785 5.31 44.8985 5.45C44.2185 5.65 43.5385 5.95 42.8585 6.35C42.1985 6.73 41.5785 7.2 40.9985 7.76C40.4385 8.32 39.9485 8.96 39.5285 9.68C39.1285 10.38 38.8385 11.14 38.6585 11.96L37.8485 11.93C38.1285 11.59 38.4685 11.23 38.8685 10.85C39.2885 10.45 39.7885 10.11 40.3685 9.83C40.9685 9.53 41.6685 9.38 42.4685 9.38C43.2485 9.38 44.0185 9.56 44.7785 9.92C45.5585 10.28 46.2585 10.78 46.8785 11.42C47.5185 12.04 48.0285 12.78 48.4085 13.64C48.7885 14.48 48.9785 15.38 48.9785 16.34C48.9785 17.62 48.6585 18.79 48.0185 19.85C47.3985 20.91 46.5585 21.75 45.4985 22.37C44.4585 22.99 43.2885 23.3 41.9885 23.3ZM41.9885 20C42.6285 20 43.1985 19.84 43.6985 19.52C44.2185 19.2 44.6285 18.76 44.9285 18.2C45.2285 17.64 45.3785 17.02 45.3785 16.34C45.3785 15.64 45.2285 15.02 44.9285 14.48C44.6285 13.92 44.2185 13.48 43.6985 13.16C43.1985 12.84 42.6285 12.68 41.9885 12.68C41.3485 12.68 40.7685 12.84 40.2485 13.16C39.7485 13.48 39.3485 13.92 39.0485 14.48C38.7485 15.02 38.5985 15.64 38.5985 16.34C38.5985 17.02 38.7485 17.64 39.0485 18.2C39.3485 18.76 39.7485 19.2 40.2485 19.52C40.7685 19.84 41.3485 20 41.9885 20ZM71.5021 23C70.9821 23 70.5521 22.83 70.2121 22.49C69.8721 22.13 69.7021 21.69 69.7021 21.17V2.63C69.7021 2.11 69.8721 1.68 70.2121 1.34C70.5521 0.979999 70.9821 0.8 71.5021 0.8C72.0221 0.8 72.4521 0.979999 72.7921 1.34C73.1321 1.68 73.3021 2.11 73.3021 2.63V21.17C73.3021 21.69 73.1321 22.13 72.7921 22.49C72.4521 22.83 72.0221 23 71.5021 23ZM81.0421 6.95C81.5021 6.95 81.9021 7.14 82.2421 7.52C82.5821 7.9 82.7521 8.27 82.7521 8.63C82.7521 9.11 82.5121 9.56 82.0321 9.98L73.0021 18.29L72.8521 14.15L79.7221 7.52C80.1021 7.14 80.5421 6.95 81.0421 6.95ZM81.4921 22.97C80.9721 22.97 80.5321 22.77 80.1721 22.37L74.6221 16.49L77.3521 13.97L82.7521 19.85C83.1321 20.25 83.3221 20.7 83.3221 21.2C83.3221 21.72 83.1121 22.15 82.6921 22.49C82.2921 22.81 81.8921 22.97 81.4921 22.97ZM93.1422 6.65C93.9822 6.65 94.7522 6.78 95.4522 7.04C96.1522 7.3 96.7522 7.63 97.2522 8.03C97.7722 8.43 98.1722 8.84 98.4522 9.26C98.7522 9.66 98.9022 10 98.9022 10.28L98.1222 10.67V8.48C98.1222 7.96 98.2922 7.53 98.6322 7.19C98.9722 6.83 99.4022 6.65 99.9222 6.65C100.442 6.65 100.872 6.82 101.212 7.16C101.552 7.5 101.722 7.94 101.722 8.48V21.83C101.722 23.57 101.342 24.96 100.582 26C99.8422 27.06 98.8622 27.82 97.6422 28.28C96.4222 28.76 95.1122 29 93.7122 29C93.3122 29 92.7922 28.95 92.1522 28.85C91.5122 28.75 90.9022 28.63 90.3222 28.49C89.7422 28.35 89.3022 28.22 89.0022 28.1C88.4022 27.84 87.9822 27.51 87.7422 27.11C87.5222 26.73 87.4822 26.32 87.6222 25.88C87.8022 25.3 88.0922 24.9 88.4922 24.68C88.8922 24.48 89.3122 24.46 89.7522 24.62C89.9522 24.68 90.2822 24.8 90.7422 24.98C91.2022 25.16 91.7022 25.32 92.2422 25.46C92.8022 25.62 93.2922 25.7 93.7122 25.7C95.2122 25.7 96.3222 25.4 97.0422 24.8C97.7622 24.2 98.1222 23.37 98.1222 22.31V19.7L98.4822 19.97C98.4822 20.23 98.3422 20.55 98.0622 20.93C97.8022 21.29 97.4322 21.65 96.9522 22.01C96.4922 22.37 95.9422 22.68 95.3022 22.94C94.6622 23.18 93.9822 23.3 93.2622 23.3C91.8422 23.3 90.5622 22.95 89.4222 22.25C88.2822 21.53 87.3822 20.55 86.7222 19.31C86.0622 18.05 85.7322 16.61 85.7322 14.99C85.7322 13.35 86.0622 11.91 86.7222 10.67C87.3822 9.41 88.2722 8.43 89.3922 7.73C90.5122 7.01 91.7622 6.65 93.1422 6.65ZM93.7122 9.95C92.8122 9.95 92.0222 10.17 91.3422 10.61C90.6622 11.05 90.1322 11.65 89.7522 12.41C89.3722 13.17 89.1822 14.03 89.1822 14.99C89.1822 15.93 89.3722 16.78 89.7522 17.54C90.1322 18.3 90.6622 18.9 91.3422 19.34C92.0222 19.78 92.8122 20 93.7122 20C94.6322 20 95.4322 19.78 96.1122 19.34C96.7922 18.9 97.3222 18.3 97.7022 17.54C98.0822 16.78 98.2722 15.93 98.2722 14.99C98.2722 14.03 98.0822 13.17 97.7022 12.41C97.3222 11.65 96.7922 11.05 96.1122 10.61C95.4322 10.17 94.6322 9.95 93.7122 9.95Z" fill="#5353F9"/>
<path d="M58.2805 22.93C56.9272 22.93 55.8772 22.58 55.1305 21.88C54.4305 21.1333 54.0805 20.0833 54.0805 18.73V17.54C54.0805 16.1867 54.4305 15.16 55.1305 14.46C55.8772 13.7133 56.9272 13.34 58.2805 13.34H59.1905C60.5438 13.34 61.5705 13.7133 62.2705 14.46C63.0172 15.16 63.3905 16.1867 63.3905 17.54V18.73C63.3905 20.0833 63.0172 21.1333 62.2705 21.88C61.5705 22.58 60.5438 22.93 59.1905 22.93H58.2805Z" fill="#F80094"/>
</svg>
