<svg width="45" height="28" viewBox="0 0 45 28" fill="none" xmlns="http://www.w3.org/2000/svg">
    <path
        d="M36.5652 10.6875C35.5485 10.687 34.5401 10.8711 33.5892 11.2307L29.17 3.65625H33.7527C34.1256 3.65625 34.4833 3.80441 34.747 4.06813C35.0107 4.33185 35.1589 4.68954 35.1589 5.0625C35.1589 5.43546 35.3071 5.79315 35.5708 6.05687C35.8345 6.32059 36.1922 6.46875 36.5652 6.46875C36.9381 6.46875 37.2958 6.32059 37.5595 6.05687C37.8232 5.79315 37.9714 5.43546 37.9714 5.0625C37.9714 3.94362 37.5269 2.87056 36.7358 2.07939C35.9446 1.28822 34.8715 0.84375 33.7527 0.84375H26.7214C26.4748 0.844311 26.2327 0.909696 26.0194 1.03335C25.8061 1.157 25.629 1.33458 25.506 1.54826C25.3829 1.76194 25.3182 2.00422 25.3184 2.2508C25.3185 2.49738 25.3835 2.73958 25.5068 2.95313L27.5546 6.46875H17.4507L14.5767 1.54688C14.4535 1.33357 14.2765 1.15635 14.0633 1.03295C13.8502 0.909554 13.6083 0.844311 13.362 0.84375H8.44016C8.0672 0.84375 7.70951 0.991908 7.44579 1.25563C7.18207 1.51935 7.03391 1.87704 7.03391 2.25C7.03391 2.62296 7.18207 2.98065 7.44579 3.24437C7.70951 3.50809 8.0672 3.65625 8.44016 3.65625H12.5552L14.9652 7.78887L12.2036 11.577C10.3063 10.6274 8.12144 10.4255 6.08219 11.0111C4.04294 11.5967 2.29816 12.9272 1.19371 14.7387C0.0892694 16.5503 -0.294212 18.7107 0.119285 20.7917C0.532782 22.8726 1.71307 24.7223 3.42619 25.974C5.13931 27.2257 7.26019 27.788 9.36841 27.5495C11.4766 27.311 13.4183 26.2891 14.8085 24.6864C16.1987 23.0836 16.936 21.017 16.8742 18.8963C16.8123 16.7755 15.9559 14.7554 14.4747 13.2363L16.512 10.4414L21.9911 19.8281C22.0768 20.0001 22.1967 20.1527 22.3436 20.2765C22.4904 20.4003 22.6611 20.4928 22.8451 20.5481C23.0291 20.6034 23.2224 20.6204 23.4132 20.5981C23.604 20.5758 23.7882 20.5146 23.9545 20.4184C24.1208 20.3222 24.2655 20.1929 24.3799 20.0385C24.4943 19.8842 24.5758 19.708 24.6194 19.5209C24.6631 19.3339 24.668 19.1398 24.6337 18.9508C24.5995 18.7618 24.5269 18.5818 24.4204 18.4219L19.0907 9.28125H29.1947L31.1616 12.651C29.6388 13.9238 28.6134 15.6926 28.2656 17.6466C27.9179 19.6006 28.2701 21.6147 29.2603 23.3347C30.2505 25.0547 31.8154 26.3706 33.6798 27.0511C35.5442 27.7316 37.5888 27.733 39.4542 27.0552C41.3196 26.3774 42.8863 25.0637 43.8789 23.345C44.8716 21.6264 45.2266 19.6129 44.8817 17.6584C44.5367 15.7039 43.5137 13.9336 41.9927 12.6586C40.4717 11.3837 38.5499 10.6858 36.5652 10.6875ZM14.0652 19.125C14.0655 20.3281 13.6801 21.4997 12.9654 22.4676C12.2508 23.4355 11.2447 24.1488 10.0948 24.5027C8.9449 24.8566 7.71182 24.8325 6.57663 24.4339C5.44145 24.0353 4.46397 23.2833 3.78774 22.2881C3.11151 21.293 2.77216 20.1073 2.81952 18.9051C2.86688 17.7029 3.29846 16.5476 4.05088 15.6088C4.8033 14.6699 5.83692 13.9971 6.99994 13.6891C8.16297 13.381 9.39412 13.454 10.5126 13.8973L7.30461 18.2918C7.18782 18.4403 7.10216 18.6109 7.05275 18.7933C7.00335 18.9757 6.99121 19.1662 7.01707 19.3534C7.04292 19.5406 7.10624 19.7206 7.20324 19.8828C7.30023 20.045 7.42892 20.1859 7.58161 20.2973C7.73431 20.4086 7.90787 20.488 8.09194 20.5308C8.27601 20.5735 8.4668 20.5787 8.65293 20.5461C8.83906 20.5135 9.0167 20.4436 9.17525 20.3408C9.3338 20.238 9.46999 20.1043 9.5757 19.9477L12.7837 15.5531C13.6133 16.5585 14.0664 17.8216 14.0652 19.125ZM36.5652 24.75C35.451 24.7492 34.3623 24.4175 33.4369 23.797C32.5115 23.1766 31.7913 22.2953 31.3674 21.265C30.9436 20.2346 30.8352 19.1016 31.0562 18.0096C31.2771 16.9176 31.8173 15.9158 32.6083 15.1313L35.3505 19.8281C35.4361 20.0001 35.5561 20.1527 35.703 20.2765C35.8498 20.4003 36.0205 20.4928 36.2045 20.5481C36.3884 20.6034 36.5818 20.6204 36.7726 20.5981C36.9634 20.5758 37.1476 20.5146 37.3139 20.4184C37.4801 20.3222 37.6249 20.1929 37.7393 20.0385C37.8536 19.8842 37.9352 19.708 37.9788 19.5209C38.0225 19.3339 38.0273 19.1398 37.9931 18.9508C37.9589 18.7618 37.8863 18.5818 37.7798 18.4219L35.0359 13.7127C35.8096 13.4937 36.6213 13.4431 37.4163 13.5643C38.2112 13.6856 38.9709 13.9759 39.6442 14.4157C40.3174 14.8554 40.8886 15.4344 41.3191 16.1136C41.7496 16.7928 42.0294 17.5565 42.1398 18.353C42.2502 19.1495 42.1885 19.9605 41.9589 20.7311C41.7292 21.5018 41.3371 22.2143 40.8087 22.8205C40.2804 23.4268 39.6283 23.9127 38.8962 24.2456C38.1642 24.5784 37.3693 24.7504 36.5652 24.75Z"
        fill="currentColor" />
</svg>