<svg width="35" height="31" viewBox="0 0 35 31" fill="none" xmlns="http://www.w3.org/2000/svg">
    <path
        d="M4.20703 11.625L7.01953 3.1875H27.6445L30.457 11.625M27.6445 21C26.8986 21 26.1832 20.7037 25.6558 20.1762C25.1283 19.6488 24.832 18.9334 24.832 18.1875C24.832 17.4416 25.1283 16.7262 25.6558 16.1988C26.1832 15.6713 26.8986 15.375 27.6445 15.375C28.3905 15.375 29.1058 15.6713 29.6333 16.1988C30.1607 16.7262 30.457 17.4416 30.457 18.1875C30.457 18.9334 30.1607 19.6488 29.6333 20.1762C29.1058 20.7037 28.3905 21 27.6445 21ZM7.01953 21C6.27361 21 5.55824 20.7037 5.03079 20.1762C4.50335 19.6488 4.20703 18.9334 4.20703 18.1875C4.20703 17.4416 4.50335 16.7262 5.03079 16.1988C5.55824 15.6713 6.27361 15.375 7.01953 15.375C7.76545 15.375 8.48082 15.6713 9.00827 16.1988C9.53572 16.7262 9.83203 17.4416 9.83203 18.1875C9.83203 18.9334 9.53572 19.6488 9.00827 20.1762C8.48082 20.7037 7.76545 21 7.01953 21ZM30.307 2.25C29.932 1.1625 28.882 0.375 27.6445 0.375H7.01953C5.78203 0.375 4.73203 1.1625 4.35703 2.25L0.457031 13.5V28.5C0.457031 28.9973 0.654575 29.4742 1.00621 29.8258C1.35784 30.1775 1.83475 30.375 2.33203 30.375H4.20703C4.70431 30.375 5.18123 30.1775 5.53286 29.8258C5.88449 29.4742 6.08203 28.9973 6.08203 28.5V26.625H28.582V28.5C28.582 28.9973 28.7796 29.4742 29.1312 29.8258C29.4828 30.1775 29.9598 30.375 30.457 30.375H32.332C32.8293 30.375 33.3062 30.1775 33.6579 29.8258C34.0095 29.4742 34.207 28.9973 34.207 28.5V13.5L30.307 2.25Z"
        fill="currentColor" />
</svg>