<svg width="32" height="42" viewBox="0 0 32 42" fill="none" xmlns="http://www.w3.org/2000/svg">
    <path
        d="M20.8156 8.3125C22.8594 8.3125 24.5656 6.5875 24.5656 4.5625C24.5656 3.56794 24.1705 2.61411 23.4673 1.91085C22.764 1.20759 21.8102 0.8125 20.8156 0.8125C18.7344 0.8125 17.0656 2.4625 17.0656 4.5625C17.0656 6.5875 18.7344 8.3125 20.8156 8.3125ZM14.0469 34.3375L15.9219 26.125L19.8781 29.875V41.125H23.6281V27.0625L19.6719 23.3125L20.8156 17.6875C22.1004 19.1596 23.6854 20.3396 25.4642 21.1481C27.243 21.9567 29.1742 22.375 31.1281 22.375V18.625C27.5469 18.625 24.5656 16.75 23.0469 14.0875L21.1719 11.125C20.4219 9.9625 19.2969 9.25 18.0031 9.25C17.4219 9.25 17.0656 9.4 16.4844 9.4L6.75312 13.525V22.375H10.5031V15.9625L13.8594 14.65L10.8594 29.875L1.67187 28L0.921875 31.75L14.0469 34.3375Z"
        fill="currentColor" />
</svg>