<svg width="31" height="37" viewBox="0 0 31 37" fill="none" xmlns="http://www.w3.org/2000/svg">
    <path
        d="M26.918 17.5625H4.41797V8.1875H26.918M24.1055 28.8125C23.3595 28.8125 22.6442 28.5162 22.1167 27.9887C21.5893 27.4613 21.293 26.7459 21.293 26C21.293 25.2541 21.5893 24.5387 22.1167 24.0113C22.6442 23.4838 23.3595 23.1875 24.1055 23.1875C24.8514 23.1875 25.5668 23.4838 26.0942 24.0113C26.6217 24.5387 26.918 25.2541 26.918 26C26.918 26.7459 26.6217 27.4613 26.0942 27.9887C25.5668 28.5162 24.8514 28.8125 24.1055 28.8125ZM7.23047 28.8125C6.48455 28.8125 5.76918 28.5162 5.24173 27.9887C4.71428 27.4613 4.41797 26.7459 4.41797 26C4.41797 25.2541 4.71428 24.5387 5.24173 24.0113C5.76918 23.4838 6.48455 23.1875 7.23047 23.1875C7.97639 23.1875 8.69176 23.4838 9.21921 24.0113C9.74665 24.5387 10.043 25.2541 10.043 26C10.043 26.7459 9.74665 27.4613 9.21921 27.9887C8.69176 28.5162 7.97639 28.8125 7.23047 28.8125ZM0.667969 26.9375C0.667969 28.5875 1.39922 30.0687 2.54297 31.1V34.4375C2.54297 34.9348 2.74051 35.4117 3.09214 35.7633C3.44377 36.115 3.92069 36.3125 4.41797 36.3125H6.29297C6.79025 36.3125 7.26716 36.115 7.61879 35.7633C7.97042 35.4117 8.16797 34.9348 8.16797 34.4375V32.5625H23.168V34.4375C23.168 34.9348 23.3655 35.4117 23.7171 35.7633C24.0688 36.115 24.5457 36.3125 25.043 36.3125H26.918C27.4152 36.3125 27.8922 36.115 28.2438 35.7633C28.5954 35.4117 28.793 34.9348 28.793 34.4375V31.1C29.9367 30.0687 30.668 28.5875 30.668 26.9375V8.1875C30.668 1.625 23.9555 0.6875 15.668 0.6875C7.38047 0.6875 0.667969 1.625 0.667969 8.1875V26.9375Z"
        fill="currentColor" />
</svg>