<svg width="26" height="26" viewBox="0 0 26 26" fill="none" xmlns="http://www.w3.org/2000/svg">
<path d="M13 11.9173C14.0713 11.9173 15.1186 11.5996 16.0093 11.0044C16.9001 10.4093 17.5944 9.56329 18.0043 8.57352C18.4143 7.58376 18.5216 6.49465 18.3126 5.44391C18.1036 4.39318 17.5877 3.42803 16.8302 2.67049C16.0726 1.91296 15.1075 1.39707 14.0567 1.18807C13.006 0.979063 11.9169 1.08633 10.9271 1.49631C9.93737 1.90628 9.0914 2.60055 8.49621 3.49131C7.90102 4.38208 7.58333 5.42934 7.58333 6.50065C7.58505 7.93672 8.15629 9.31347 9.17174 10.3289C10.1872 11.3444 11.5639 11.9156 13 11.9173ZM13 3.25065C13.6428 3.25065 14.2711 3.44126 14.8056 3.79838C15.3401 4.15549 15.7566 4.66307 16.0026 5.25693C16.2486 5.85079 16.313 6.50426 16.1876 7.1347C16.0622 7.76514 15.7526 8.34423 15.2981 8.79875C14.8436 9.25327 14.2645 9.5628 13.634 9.68821C13.0036 9.81361 12.3501 9.74925 11.7563 9.50326C11.1624 9.25728 10.6548 8.84072 10.2977 8.30626C9.94061 7.7718 9.75 7.14344 9.75 6.50065C9.75 5.6387 10.0924 4.81205 10.7019 4.20256C11.3114 3.59306 12.138 3.25065 13 3.25065ZM3.25 23.834V19.5007C3.25172 18.0646 3.82296 16.6878 4.8384 15.6724C5.85385 14.6569 7.23061 14.0857 8.66667 14.084H17.3333C18.7694 14.0857 20.1461 14.6569 21.1616 15.6724C22.177 16.6878 22.7483 18.0646 22.75 19.5007V23.834C22.75 24.1213 22.6359 24.3969 22.4327 24.6C22.2295 24.8032 21.954 24.9173 21.6667 24.9173C21.3793 24.9173 21.1038 24.8032 20.9006 24.6C20.6975 24.3969 20.5833 24.1213 20.5833 23.834V19.5007C20.5833 18.6387 20.2409 17.812 19.6314 17.2026C19.0219 16.5931 18.1953 16.2507 17.3333 16.2507H8.66667C7.80471 16.2507 6.97806 16.5931 6.36857 17.2026C5.75908 17.812 5.41667 18.6387 5.41667 19.5007V23.834C5.41667 24.1213 5.30253 24.3969 5.09937 24.6C4.8962 24.8032 4.62065 24.9173 4.33333 24.9173C4.04602 24.9173 3.77047 24.8032 3.5673 24.6C3.36414 24.3969 3.25 24.1213 3.25 23.834Z" fill="#9D9FA2"/>
</svg>
