<svg width="32" height="32" viewBox="0 0 32 32" fill="none" xmlns="http://www.w3.org/2000/svg">
<path d="M10.6654 28.0007H5.33203C4.97841 28.0007 4.63927 27.8602 4.38922 27.6101C4.13917 27.3601 3.9987 27.0209 3.9987 26.6673V21.334C3.9987 20.9804 3.85822 20.6412 3.60817 20.3912C3.35813 20.1411 3.01899 20.0007 2.66536 20.0007C2.31174 20.0007 1.9726 20.1411 1.72256 20.3912C1.47251 20.6412 1.33203 20.9804 1.33203 21.334V26.6673C1.33203 27.7282 1.75346 28.7456 2.5036 29.4957C3.25375 30.2459 4.27117 30.6673 5.33203 30.6673H10.6654C11.019 30.6673 11.3581 30.5268 11.6082 30.2768C11.8582 30.0267 11.9987 29.6876 11.9987 29.334C11.9987 28.9804 11.8582 28.6412 11.6082 28.3912C11.3581 28.1411 11.019 28.0007 10.6654 28.0007ZM29.332 20.0007C28.9784 20.0007 28.6393 20.1411 28.3892 20.3912C28.1392 20.6412 27.9987 20.9804 27.9987 21.334V26.6673C27.9987 27.0209 27.8582 27.3601 27.6082 27.6101C27.3581 27.8602 27.019 28.0007 26.6654 28.0007H21.332C20.9784 28.0007 20.6393 28.1411 20.3892 28.3912C20.1392 28.6412 19.9987 28.9804 19.9987 29.334C19.9987 29.6876 20.1392 30.0267 20.3892 30.2768C20.6393 30.5268 20.9784 30.6673 21.332 30.6673H26.6654C27.7262 30.6673 28.7436 30.2459 29.4938 29.4957C30.2439 28.7456 30.6654 27.7282 30.6654 26.6673V21.334C30.6654 20.9804 30.5249 20.6412 30.2748 20.3912C30.0248 20.1411 29.6857 20.0007 29.332 20.0007ZM26.6654 1.33398H21.332C20.9784 1.33398 20.6393 1.47446 20.3892 1.72451C20.1392 1.97456 19.9987 2.3137 19.9987 2.66732C19.9987 3.02094 20.1392 3.36008 20.3892 3.61013C20.6393 3.86018 20.9784 4.00065 21.332 4.00065H26.6654C27.019 4.00065 27.3581 4.14113 27.6082 4.39118C27.8582 4.64122 27.9987 4.98036 27.9987 5.33398V10.6673C27.9987 11.0209 28.1392 11.3601 28.3892 11.6101C28.6393 11.8602 28.9784 12.0007 29.332 12.0007C29.6857 12.0007 30.0248 11.8602 30.2748 11.6101C30.5249 11.3601 30.6654 11.0209 30.6654 10.6673V5.33398C30.6654 4.27312 30.2439 3.2557 29.4938 2.50556C28.7436 1.75541 27.7262 1.33398 26.6654 1.33398ZM2.66536 12.0007C3.01899 12.0007 3.35813 11.8602 3.60817 11.6101C3.85822 11.3601 3.9987 11.0209 3.9987 10.6673V5.33398C3.9987 4.98036 4.13917 4.64122 4.38922 4.39118C4.63927 4.14113 4.97841 4.00065 5.33203 4.00065H10.6654C11.019 4.00065 11.3581 3.86018 11.6082 3.61013C11.8582 3.36008 11.9987 3.02094 11.9987 2.66732C11.9987 2.3137 11.8582 1.97456 11.6082 1.72451C11.3581 1.47446 11.019 1.33398 10.6654 1.33398H5.33203C4.27117 1.33398 3.25375 1.75541 2.5036 2.50556C1.75346 3.2557 1.33203 4.27312 1.33203 5.33398V10.6673C1.33203 11.0209 1.47251 11.3601 1.72256 11.6101C1.9726 11.8602 2.31174 12.0007 2.66536 12.0007ZM13.332 6.66732H7.9987C7.64508 6.66732 7.30594 6.80779 7.05589 7.05784C6.80584 7.30789 6.66536 7.64703 6.66536 8.00065V13.334C6.66536 13.6876 6.80584 14.0267 7.05589 14.2768C7.30594 14.5268 7.64508 14.6673 7.9987 14.6673H13.332C13.6857 14.6673 14.0248 14.5268 14.2748 14.2768C14.5249 14.0267 14.6654 13.6876 14.6654 13.334V8.00065C14.6654 7.64703 14.5249 7.30789 14.2748 7.05784C14.0248 6.80779 13.6857 6.66732 13.332 6.66732ZM11.9987 12.0007H9.33203V9.33398H11.9987V12.0007ZM18.6654 14.6673H23.9987C24.3523 14.6673 24.6915 14.5268 24.9415 14.2768C25.1916 14.0267 25.332 13.6876 25.332 13.334V8.00065C25.332 7.64703 25.1916 7.30789 24.9415 7.05784C24.6915 6.80779 24.3523 6.66732 23.9987 6.66732H18.6654C18.3117 6.66732 17.9726 6.80779 17.7226 7.05784C17.4725 7.30789 17.332 7.64703 17.332 8.00065V13.334C17.332 13.6876 17.4725 14.0267 17.7226 14.2768C17.9726 14.5268 18.3117 14.6673 18.6654 14.6673ZM19.9987 9.33398H22.6654V12.0007H19.9987V9.33398ZM13.332 17.334H7.9987C7.64508 17.334 7.30594 17.4745 7.05589 17.7245C6.80584 17.9746 6.66536 18.3137 6.66536 18.6673V24.0007C6.66536 24.3543 6.80584 24.6934 7.05589 24.9435C7.30594 25.1935 7.64508 25.334 7.9987 25.334H13.332C13.6857 25.334 14.0248 25.1935 14.2748 24.9435C14.5249 24.6934 14.6654 24.3543 14.6654 24.0007V18.6673C14.6654 18.3137 14.5249 17.9746 14.2748 17.7245C14.0248 17.4745 13.6857 17.334 13.332 17.334ZM11.9987 22.6673H9.33203V20.0007H11.9987V22.6673ZM18.6654 21.334C19.019 21.334 19.3581 21.1935 19.6082 20.9435C19.8582 20.6934 19.9987 20.3543 19.9987 20.0007C20.3523 20.0007 20.6915 19.8602 20.9415 19.6101C21.1916 19.3601 21.332 19.0209 21.332 18.6673C21.332 18.3137 21.1916 17.9746 20.9415 17.7245C20.6915 17.4745 20.3523 17.334 19.9987 17.334H18.6654C18.3117 17.334 17.9726 17.4745 17.7226 17.7245C17.4725 17.9746 17.332 18.3137 17.332 18.6673V20.0007C17.332 20.3543 17.4725 20.6934 17.7226 20.9435C17.9726 21.1935 18.3117 21.334 18.6654 21.334ZM23.9987 17.334C23.6451 17.334 23.3059 17.4745 23.0559 17.7245C22.8058 17.9746 22.6654 18.3137 22.6654 18.6673V22.6673C22.3117 22.6673 21.9726 22.8078 21.7226 23.0578C21.4725 23.3079 21.332 23.647 21.332 24.0007C21.332 24.3543 21.4725 24.6934 21.7226 24.9435C21.9726 25.1935 22.3117 25.334 22.6654 25.334H23.9987C24.3523 25.334 24.6915 25.1935 24.9415 24.9435C25.1916 24.6934 25.332 24.3543 25.332 24.0007V18.6673C25.332 18.3137 25.1916 17.9746 24.9415 17.7245C24.6915 17.4745 24.3523 17.334 23.9987 17.334ZM18.6654 22.6673C18.4017 22.6673 18.1439 22.7455 17.9246 22.892C17.7053 23.0385 17.5344 23.2468 17.4335 23.4904C17.3326 23.734 17.3062 24.0021 17.3577 24.2608C17.4091 24.5194 17.5361 24.757 17.7226 24.9435C17.909 25.1299 18.1466 25.2569 18.4052 25.3084C18.6639 25.3598 18.932 25.3334 19.1756 25.2325C19.4192 25.1316 19.6275 24.9607 19.774 24.7414C19.9205 24.5221 19.9987 24.2644 19.9987 24.0007C19.9987 23.647 19.8582 23.3079 19.6082 23.0578C19.3581 22.8078 19.019 22.6673 18.6654 22.6673Z" fill="white"/>
</svg>
