<svg width="28" height="28" viewBox="0 0 28 28" fill="none" xmlns="http://www.w3.org/2000/svg">
    <path
        d="M14.0634 0.935547C6.70795 0.935547 0.738281 6.90522 0.738281 14.2607C0.738281 21.6162 6.70795 27.5859 14.0634 27.5859C21.4189 27.5859 27.3886 21.6162 27.3886 14.2607C27.3886 6.90522 21.4189 0.935547 14.0634 0.935547ZM20.2463 9.99665C20.0464 12.102 19.1803 17.2189 18.7406 19.5774C18.554 20.5768 18.1809 20.91 17.8345 20.9499C17.0616 21.0166 16.4753 20.4436 15.7291 19.9505C14.5565 19.1777 13.8902 18.698 12.7576 17.9518C11.4384 17.0856 12.2912 16.6059 13.0507 15.8331C13.2506 15.6332 16.6618 12.5284 16.7285 12.2486C16.7377 12.2062 16.7365 12.1622 16.7249 12.1204C16.7133 12.0786 16.6916 12.0403 16.6618 12.0087C16.5819 11.9421 16.4753 11.9688 16.382 11.9821C16.2621 12.0087 14.3966 13.248 10.7588 15.6998C10.2258 16.0596 9.74608 16.2461 9.31968 16.2328C8.83997 16.2195 7.93386 15.9663 7.25428 15.7398C6.4148 15.4733 5.76186 15.3267 5.81516 14.8603C5.84181 14.6205 6.17494 14.3806 6.80123 14.1274C10.6922 12.4352 13.2773 11.3158 14.5698 10.7828C18.2742 9.23712 19.0337 8.97061 19.5401 8.97061C19.6467 8.97061 19.8999 8.99726 20.0598 9.13052C20.193 9.23712 20.233 9.38369 20.2463 9.4903C20.233 9.57025 20.2596 9.8101 20.2463 9.99665Z"
        fill="currentColor" />
</svg>