<svg width="27" height="26" viewBox="0 0 27 26" fill="none" xmlns="http://www.w3.org/2000/svg">
<path d="M21.0833 21.6673H5.91667C5.34203 21.6673 4.79093 21.439 4.3846 21.0327C3.97827 20.6264 3.75 20.0753 3.75 19.5007V9.75065C3.75 9.17602 3.97827 8.62491 4.3846 8.21859C4.79093 7.81226 5.34203 7.58398 5.91667 7.58398H21.0833C21.658 7.58398 22.2091 7.81226 22.6154 8.21859C23.0217 8.62491 23.25 9.17602 23.25 9.75065V19.5007C23.25 20.0753 23.0217 20.6264 22.6154 21.0327C22.2091 21.439 21.658 21.6673 21.0833 21.6673Z" stroke="#9D9FA2" stroke-width="1.625"/>
<path d="M18.3737 15.1673C18.23 15.1673 18.0923 15.1102 17.9907 15.0087C17.8891 14.9071 17.832 14.7693 17.832 14.6257C17.832 14.482 17.8891 14.3442 17.9907 14.2426C18.0923 14.1411 18.23 14.084 18.3737 14.084C18.5174 14.084 18.6551 14.1411 18.7567 14.2426C18.8583 14.3442 18.9154 14.482 18.9154 14.6257C18.9154 14.7693 18.8583 14.9071 18.7567 15.0087C18.6551 15.1102 18.5174 15.1673 18.3737 15.1673Z" fill="#9D9FA2" stroke="#9D9FA2" stroke-width="1.625" stroke-linecap="round" stroke-linejoin="round"/>
<path d="M20 7.58378V6.07036C19.9999 5.73832 19.9235 5.41075 19.7767 5.11293C19.6299 4.81511 19.4166 4.55502 19.1533 4.35275C18.8899 4.15047 18.5837 4.01142 18.2581 3.94633C17.9325 3.88124 17.5963 3.89186 17.2754 3.97736L5.35875 7.15478C4.89731 7.27775 4.48942 7.54972 4.19849 7.92841C3.90756 8.30711 3.74989 8.77131 3.75 9.24886V9.75044" stroke="#9D9FA2" stroke-width="1.625"/>
</svg>
