<svg width="27" height="28" viewBox="0 0 27 28" fill="none" xmlns="http://www.w3.org/2000/svg">
    <path
        d="M13.5908 0.935547C20.9503 0.935547 26.9159 6.90121 26.9159 14.2607C26.9159 21.6202 20.9503 27.5858 13.5908 27.5858C11.2359 27.5899 8.92243 26.9667 6.88824 25.7803L0.270976 27.5858L2.07253 20.9659C0.885209 18.9311 0.261519 16.6166 0.265645 14.2607C0.265645 6.90121 6.23131 0.935547 13.5908 0.935547ZM9.04958 7.99787L8.78308 8.00853C8.61077 8.02041 8.44242 8.06566 8.28738 8.14178C8.1429 8.22375 8.01097 8.32607 7.89562 8.4456C7.73572 8.59617 7.64511 8.72676 7.54784 8.85335C7.05497 9.49416 6.7896 10.2809 6.79363 11.0893C6.7963 11.7422 6.96686 12.3778 7.23336 12.9721C7.77836 14.1741 8.67514 15.4466 9.85842 16.6259C10.1436 16.9097 10.4234 17.1949 10.7246 17.4601C12.1949 18.7545 13.9469 19.688 15.8414 20.1864L16.5983 20.3023C16.8448 20.3156 17.0913 20.297 17.3392 20.285C17.7272 20.2645 18.106 20.1595 18.4491 19.9772C18.6235 19.887 18.7938 19.7892 18.9595 19.684C18.9595 19.684 19.0159 19.6458 19.1261 19.5641C19.3059 19.4308 19.4165 19.3362 19.5658 19.1803C19.6777 19.0648 19.771 18.9307 19.8456 18.7779C19.9495 18.5607 20.0535 18.1463 20.0961 17.8012C20.1281 17.5373 20.1188 17.3934 20.1148 17.3042C20.1094 17.1616 19.9909 17.0137 19.8616 16.951L19.0861 16.6033C19.0861 16.6033 17.9268 16.0982 17.2179 15.7758C17.1437 15.7435 17.0642 15.7249 16.9834 15.7211C16.8922 15.7116 16.8 15.7218 16.7131 15.751C16.6262 15.7802 16.5466 15.8277 16.4797 15.8904C16.473 15.8877 16.3837 15.9636 15.4203 17.1309C15.365 17.2052 15.2889 17.2614 15.2015 17.2922C15.1142 17.3231 15.0197 17.3272 14.93 17.3042C14.8431 17.281 14.7581 17.2516 14.6755 17.2162C14.5102 17.1469 14.4529 17.1203 14.3397 17.0723C13.5746 16.739 12.8665 16.2881 12.241 15.7358C12.0731 15.5892 11.9172 15.4293 11.7572 15.2747C11.2331 14.7727 10.7762 14.2047 10.3981 13.5851L10.3195 13.4585C10.2639 13.373 10.2182 13.2813 10.1835 13.1854C10.1329 12.9895 10.2648 12.8322 10.2648 12.8322C10.2648 12.8322 10.5886 12.4778 10.7392 12.2859C10.8858 12.0994 11.0097 11.9181 11.0897 11.7889C11.2469 11.5357 11.2962 11.2759 11.2136 11.0746C10.8405 10.1632 10.4549 9.25665 10.057 8.35499C9.97834 8.17643 9.74515 8.04851 9.53328 8.02319C9.46133 8.01431 9.38937 8.0072 9.31741 8.00187C9.1385 7.99161 8.95909 7.99339 8.78041 8.0072L9.04958 7.99787Z"
        fill="currentColor" />
</svg>