<svg width="136" height="38" viewBox="0 0 136 38" fill="none" xmlns="http://www.w3.org/2000/svg">
<path d="M10.2692 1.31398C11.7092 1.31398 13.0026 1.62065 14.1492 2.23398C15.3226 2.82065 16.3092 3.63398 17.1092 4.67398C17.9359 5.71398 18.5626 6.88732 18.9892 8.19398C19.4426 9.47398 19.6692 10.8206 19.6692 12.234C19.6692 13.1407 19.5626 14.2473 19.3492 15.554C19.1626 16.8606 18.8159 18.2473 18.3092 19.714C17.8026 21.154 17.0959 22.5673 16.1892 23.954C15.2826 25.314 14.1226 26.5407 12.7092 27.634C11.3226 28.7273 9.61589 29.554 7.58922 30.114C7.26922 30.194 6.96255 30.234 6.66922 30.234C6.05589 30.234 5.49589 30.074 4.98922 29.754C4.50922 29.4073 4.26922 28.8207 4.26922 27.994C4.26922 27.3807 4.45589 26.8607 4.82922 26.434C5.22922 26.0073 5.74922 25.7007 6.38922 25.514C7.61589 25.1407 8.80255 24.5273 9.94922 23.674C11.1226 22.794 12.1359 21.7407 12.9892 20.514C13.8426 19.2607 14.4159 17.9007 14.7092 16.434L15.7892 16.474C15.4426 16.9007 14.9892 17.3807 14.4292 17.914C13.8959 18.4473 13.2292 18.914 12.4292 19.314C11.6559 19.6873 10.7226 19.874 9.62922 19.874C7.86922 19.874 6.33589 19.5007 5.02922 18.754C3.74922 17.9807 2.74922 16.9007 2.02922 15.514C1.30922 14.1007 0.949219 12.4607 0.949219 10.594C0.949219 8.91398 1.36255 7.36732 2.18922 5.95398C3.04255 4.54065 4.17589 3.42065 5.58922 2.59398C7.00255 1.74065 8.56255 1.31398 10.2692 1.31398ZM10.2692 5.71398C9.41589 5.71398 8.64255 5.94065 7.94922 6.39398C7.28255 6.82065 6.74922 7.40732 6.34922 8.15398C5.94922 8.87398 5.74922 9.68732 5.74922 10.594C5.74922 11.5806 5.93589 12.4473 6.30922 13.194C6.68255 13.914 7.20255 14.474 7.86922 14.874C8.56255 15.274 9.36255 15.474 10.2692 15.474C11.1226 15.474 11.8826 15.2606 12.5492 14.834C13.2426 14.4073 13.7892 13.8206 14.1892 13.074C14.5892 12.3273 14.7892 11.5006 14.7892 10.594C14.7892 9.66065 14.5892 8.83398 14.1892 8.11398C13.7892 7.36732 13.2426 6.78065 12.5492 6.35398C11.8826 5.92732 11.1226 5.71398 10.2692 5.71398ZM33.0036 1.31398C34.4436 1.31398 35.7369 1.62065 36.8836 2.23398C38.0569 2.82065 39.0436 3.63398 39.8436 4.67398C40.6703 5.71398 41.2969 6.88732 41.7236 8.19398C42.1769 9.47398 42.4036 10.8206 42.4036 12.234C42.4036 13.1407 42.2969 14.2473 42.0836 15.554C41.8969 16.8606 41.5503 18.2473 41.0436 19.714C40.5369 21.154 39.8303 22.5673 38.9236 23.954C38.0169 25.314 36.8569 26.5407 35.4436 27.634C34.0569 28.7273 32.3503 29.554 30.3236 30.114C30.0036 30.194 29.6969 30.234 29.4036 30.234C28.7903 30.234 28.2303 30.074 27.7236 29.754C27.2436 29.4073 27.0036 28.8207 27.0036 27.994C27.0036 27.3807 27.1903 26.8607 27.5636 26.434C27.9636 26.0073 28.4836 25.7007 29.1236 25.514C30.3503 25.1407 31.5369 24.5273 32.6836 23.674C33.8569 22.794 34.8703 21.7407 35.7236 20.514C36.5769 19.2607 37.1503 17.9007 37.4436 16.434L38.5236 16.474C38.1769 16.9007 37.7236 17.3807 37.1636 17.914C36.6303 18.4473 35.9636 18.914 35.1636 19.314C34.3903 19.6873 33.4569 19.874 32.3636 19.874C30.6036 19.874 29.0703 19.5007 27.7636 18.754C26.4836 17.9807 25.4836 16.9007 24.7636 15.514C24.0436 14.1007 23.6836 12.4607 23.6836 10.594C23.6836 8.91398 24.0969 7.36732 24.9236 5.95398C25.7769 4.54065 26.9103 3.42065 28.3236 2.59398C29.7369 1.74065 31.2969 1.31398 33.0036 1.31398ZM33.0036 5.71398C32.1503 5.71398 31.3769 5.94065 30.6836 6.39398C30.0169 6.82065 29.4836 7.40732 29.0836 8.15398C28.6836 8.87398 28.4836 9.68732 28.4836 10.594C28.4836 11.5806 28.6703 12.4473 29.0436 13.194C29.4169 13.914 29.9369 14.474 30.6036 14.874C31.2969 15.274 32.0969 15.474 33.0036 15.474C33.8569 15.474 34.6169 15.2606 35.2836 14.834C35.9769 14.4073 36.5236 13.8206 36.9236 13.074C37.3236 12.3273 37.5236 11.5006 37.5236 10.594C37.5236 9.66065 37.3236 8.83398 36.9236 8.11398C36.5236 7.36732 35.9769 6.78065 35.2836 6.35398C34.6169 5.92732 33.8569 5.71398 33.0036 5.71398ZM55.818 30.234C54.378 30.234 53.0713 29.9407 51.898 29.354C50.7513 28.7407 49.7646 27.914 48.938 26.874C48.138 25.834 47.5113 24.6607 47.058 23.354C46.6313 22.0473 46.418 20.7007 46.418 19.314C46.418 18.4073 46.5113 17.314 46.698 16.034C46.9113 14.754 47.2713 13.4073 47.778 11.994C48.2846 10.5807 48.9913 9.20732 49.898 7.87398C50.8046 6.54065 51.9513 5.34065 53.338 4.27398C54.7513 3.20732 56.4713 2.39398 58.498 1.83398C58.818 1.75398 59.1246 1.71398 59.418 1.71398C60.0313 1.71398 60.578 1.87398 61.058 2.19398C61.5646 2.51398 61.818 3.10065 61.818 3.95398C61.818 4.54065 61.618 5.06065 61.218 5.51398C60.8446 5.94065 60.338 6.24732 59.698 6.43398C58.7913 6.70065 57.8846 7.10065 56.978 7.63398C56.098 8.14065 55.2713 8.76732 54.498 9.51398C53.7513 10.2607 53.098 11.114 52.538 12.074C52.0046 13.0073 51.618 14.0207 51.378 15.114L50.298 15.074C50.6713 14.6207 51.1246 14.1407 51.658 13.634C52.218 13.1007 52.8846 12.6473 53.658 12.274C54.458 11.874 55.3913 11.674 56.458 11.674C57.498 11.674 58.5246 11.914 59.538 12.394C60.578 12.874 61.5113 13.5407 62.338 14.394C63.1913 15.2207 63.8713 16.2073 64.378 17.354C64.8846 18.474 65.138 19.674 65.138 20.954C65.138 22.6607 64.7113 24.2207 63.858 25.634C63.0313 27.0473 61.9113 28.1673 60.498 28.994C59.1113 29.8207 57.5513 30.234 55.818 30.234ZM55.818 25.834C56.6713 25.834 57.4313 25.6207 58.098 25.194C58.7913 24.7673 59.338 24.1807 59.738 23.434C60.138 22.6873 60.338 21.8607 60.338 20.954C60.338 20.0207 60.138 19.194 59.738 18.474C59.338 17.7273 58.7913 17.1407 58.098 16.714C57.4313 16.2873 56.6713 16.074 55.818 16.074C54.9646 16.074 54.1913 16.2873 53.498 16.714C52.8313 17.1407 52.298 17.7273 51.898 18.474C51.498 19.194 51.298 20.0207 51.298 20.954C51.298 21.8607 51.498 22.6873 51.898 23.434C52.298 24.1807 52.8313 24.7673 53.498 25.194C54.1913 25.6207 54.9646 25.834 55.818 25.834ZM95.1695 29.834C94.4762 29.834 93.9029 29.6073 93.4495 29.154C92.9962 28.674 92.7695 28.0873 92.7695 27.394V2.67398C92.7695 1.98065 92.9962 1.40732 93.4495 0.953982C93.9029 0.473983 94.4762 0.233984 95.1695 0.233984C95.8629 0.233984 96.4362 0.473983 96.8895 0.953982C97.3429 1.40732 97.5695 1.98065 97.5695 2.67398V27.394C97.5695 28.0873 97.3429 28.674 96.8895 29.154C96.4362 29.6073 95.8629 29.834 95.1695 29.834ZM107.89 8.43398C108.503 8.43398 109.036 8.68732 109.49 9.19398C109.943 9.70065 110.17 10.194 110.17 10.674C110.17 11.314 109.85 11.914 109.21 12.474L97.1695 23.554L96.9695 18.034L106.13 9.19398C106.636 8.68732 107.223 8.43398 107.89 8.43398ZM108.49 29.794C107.796 29.794 107.21 29.5273 106.73 28.994L99.3295 21.154L102.97 17.794L110.17 25.634C110.676 26.1673 110.93 26.7673 110.93 27.434C110.93 28.1273 110.65 28.7007 110.09 29.154C109.556 29.5807 109.023 29.794 108.49 29.794ZM124.023 8.03398C125.143 8.03398 126.17 8.20732 127.103 8.55398C128.036 8.90065 128.836 9.34065 129.503 9.87398C130.196 10.4073 130.73 10.954 131.103 11.514C131.503 12.0473 131.703 12.5007 131.703 12.874L130.663 13.394V10.474C130.663 9.78065 130.89 9.20732 131.343 8.75398C131.796 8.27398 132.37 8.03398 133.063 8.03398C133.756 8.03398 134.33 8.26065 134.783 8.71398C135.236 9.16732 135.463 9.75398 135.463 10.474V28.274C135.463 30.594 134.956 32.4473 133.943 33.834C132.956 35.2473 131.65 36.2607 130.023 36.874C128.396 37.514 126.65 37.834 124.783 37.834C124.25 37.834 123.556 37.7673 122.703 37.634C121.85 37.5007 121.036 37.3407 120.263 37.154C119.49 36.9673 118.903 36.794 118.503 36.634C117.703 36.2873 117.143 35.8473 116.823 35.314C116.53 34.8073 116.476 34.2607 116.663 33.674C116.903 32.9007 117.29 32.3673 117.823 32.074C118.356 31.8073 118.916 31.7807 119.503 31.994C119.77 32.074 120.21 32.234 120.823 32.474C121.436 32.714 122.103 32.9273 122.823 33.114C123.57 33.3273 124.223 33.434 124.783 33.434C126.783 33.434 128.263 33.034 129.223 32.234C130.183 31.434 130.663 30.3273 130.663 28.914V25.434L131.143 25.794C131.143 26.1407 130.956 26.5673 130.583 27.074C130.236 27.554 129.743 28.034 129.103 28.514C128.49 28.994 127.756 29.4073 126.903 29.754C126.05 30.074 125.143 30.234 124.183 30.234C122.29 30.234 120.583 29.7673 119.063 28.834C117.543 27.874 116.343 26.5673 115.463 24.914C114.583 23.234 114.143 21.314 114.143 19.154C114.143 16.9673 114.583 15.0473 115.463 13.394C116.343 11.714 117.53 10.4073 119.023 9.47398C120.516 8.51398 122.183 8.03398 124.023 8.03398ZM124.783 12.434C123.583 12.434 122.53 12.7273 121.623 13.314C120.716 13.9006 120.01 14.7006 119.503 15.714C118.996 16.7273 118.743 17.874 118.743 19.154C118.743 20.4073 118.996 21.5407 119.503 22.554C120.01 23.5673 120.716 24.3673 121.623 24.954C122.53 25.5407 123.583 25.834 124.783 25.834C126.01 25.834 127.076 25.5407 127.983 24.954C128.89 24.3673 129.596 23.5673 130.103 22.554C130.61 21.5407 130.863 20.4073 130.863 19.154C130.863 17.874 130.61 16.7273 130.103 15.714C129.596 14.7006 128.89 13.9006 127.983 13.314C127.076 12.7273 126.01 12.434 124.783 12.434Z" fill="#5353F9"/>
<path d="M77.5407 29.7407C75.7362 29.7407 74.3362 29.274 73.3407 28.3407C72.4073 27.3451 71.9407 25.9451 71.9407 24.1407V22.554C71.9407 20.7495 72.4073 19.3806 73.3407 18.4473C74.3362 17.4518 75.7362 16.954 77.5407 16.954H78.754C80.5585 16.954 81.9273 17.4518 82.8607 18.4473C83.8562 19.3806 84.354 20.7495 84.354 22.554V24.1407C84.354 25.9451 83.8562 27.3451 82.8607 28.3407C81.9273 29.274 80.5585 29.7407 78.754 29.7407H77.5407Z" fill="#F80094"/>
</svg>
